<svg width="12" height="13" viewBox="0 0 12 13" fill="none" xmlns="http://www.w3.org/2000/svg">
<g id="Frame">
<path id="Vector" d="M9.80134 4.45566L6.28759 7.91391C6.21093 7.98976 6.10744 8.0323 5.99959 8.0323C5.89175 8.0323 5.78826 7.98976 5.71159 7.91391L2.19784 4.45641C2.1207 4.38061 2.01687 4.33813 1.90872 4.33813C1.80056 4.33813 1.69674 4.38061 1.61959 4.45641C1.58161 4.49345 1.55142 4.53771 1.53081 4.58659C1.51019 4.63547 1.49957 4.68799 1.49957 4.74104C1.49957 4.79409 1.51019 4.8466 1.53081 4.89549C1.55142 4.94437 1.58161 4.98863 1.61959 5.02566L5.13259 8.48316C5.36399 8.71036 5.67531 8.83765 5.99959 8.83765C6.32388 8.83765 6.6352 8.71036 6.86659 8.48316L10.3796 5.02566C10.4177 4.98862 10.448 4.94431 10.4687 4.89536C10.4893 4.84641 10.5 4.7938 10.5 4.74066C10.5 4.68752 10.4893 4.63492 10.4687 4.58597C10.448 4.53702 10.4177 4.49271 10.3796 4.45566C10.3025 4.37986 10.1986 4.33738 10.0905 4.33738C9.98231 4.33738 9.87849 4.37986 9.80134 4.45566Z" fill="white"/>
</g>
</svg>
